<?xml version="1.0" standalone="no"?>
<!DOCTYPE svg PUBLIC "-//W3C//DTD SVG 20010904//EN"
 "http://www.w3.org/TR/2001/REC-SVG-20010904/DTD/svg10.dtd">
<svg version="1.0" xmlns="http://www.w3.org/2000/svg"
 width="91.000000pt" height="30.000000pt" viewBox="0 0 91.000000 30.000000"
 preserveAspectRatio="xMidYMid meet">

<g transform="translate(0.000000,30.000000) scale(0.100000,-0.100000)"
fill="#000000" stroke="none">
<path d="M14 277 c-2 -7 -3 -69 -2 -138 l3 -124 443 -3 442 -2 0 140 0 140
-440 0 c-353 0 -442 -3 -446 -13z m867 -11 c2 -2 3 -56 1 -120 l-3 -116 -425
0 -424 0 0 120 0 120 423 0 c233 0 426 -2 428 -4z"/>
<path d="M306 211 c-7 -11 18 -33 27 -24 4 3 7 12 7 20 0 15 -26 18 -34 4z"/>
<path d="M350 205 c0 -8 7 -15 15 -15 8 0 15 7 15 15 0 8 -7 15 -15 15 -8 0
-15 -7 -15 -15z"/>
<path d="M390 205 c0 -8 5 -15 10 -15 6 0 10 7 10 15 0 8 -4 15 -10 15 -5 0
-10 -7 -10 -15z"/>
<path d="M420 203 c0 -8 5 -13 12 -11 18 6 21 25 3 25 -8 0 -15 -7 -15 -14z"/>
<path d="M460 200 c0 -11 4 -20 9 -20 5 0 11 9 14 20 3 13 0 20 -9 20 -8 0
-14 -9 -14 -20z"/>
<path d="M500 205 c0 -8 7 -15 15 -15 8 0 15 7 15 15 0 8 -7 15 -15 15 -8 0
-15 -7 -15 -15z"/>
<path d="M540 199 c0 -15 4 -19 16 -15 9 3 20 6 25 6 5 0 9 7 9 16 0 14 -3 14
-15 4 -10 -9 -15 -9 -15 -1 0 6 -4 11 -10 11 -5 0 -10 -9 -10 -21z"/>
<path d="M600 211 c0 -17 18 -21 24 -6 3 9 0 15 -9 15 -8 0 -15 -4 -15 -9z"/>
<path d="M640 205 c0 -8 4 -15 9 -15 5 0 11 7 15 15 3 9 0 15 -9 15 -8 0 -15
-7 -15 -15z"/>
<path d="M700 205 c0 -21 16 -26 44 -15 37 14 32 28 -9 28 -23 0 -35 -5 -35
-13z"/>
<path d="M153 182 c1 -20 -4 -36 -13 -42 -12 -7 -12 -12 -3 -21 9 -9 16 -9 29
2 16 13 17 12 12 -8 -3 -13 -1 -24 7 -27 7 -2 12 3 11 12 -1 10 7 17 19 17 17
0 20 7 20 47 0 27 -3 48 -7 48 -12 0 -15 -25 -6 -42 11 -22 8 -22 -28 -3 -16
8 -32 22 -36 32 -5 12 -7 7 -5 -15z m61 -41 c15 -16 14 -18 -4 -16 -11 1 -23
5 -27 10 -5 4 -2 5 6 0 9 -5 12 -4 7 3 -5 9 -15 7 -34 -5 -27 -17 -27 -17 -9
3 9 11 14 23 11 27 -3 3 3 3 14 0 12 -3 28 -13 36 -22z"/>
<path d="M275 153 c4 -10 10 -26 12 -35 7 -23 19 -23 32 0 10 16 10 16 11 0 0
-10 4 -18 9 -18 12 0 35 59 26 68 -4 4 -10 1 -12 -6 -4 -10 -8 -10 -20 -1 -11
10 -16 10 -23 0 -5 -9 -10 -10 -14 -2 -12 18 -29 13 -21 -6z"/>
<path d="M375 139 c-19 -35 -13 -48 11 -29 13 12 17 11 24 0 15 -25 23 -2 10
30 -16 38 -25 38 -45 -1z"/>
<path d="M428 158 c7 -7 12 -22 12 -35 0 -13 5 -23 10 -23 6 0 10 11 10 25 0
14 5 25 10 25 6 0 10 5 10 10 0 6 -14 10 -32 10 -25 0 -29 -3 -20 -12z"/>
<path d="M490 135 c0 -31 3 -35 25 -35 28 0 35 20 8 21 -15 0 -15 2 -3 7 8 4
16 15 18 25 2 12 -4 17 -23 17 -22 0 -25 -4 -25 -35z"/>
<path d="M550 136 c0 -20 5 -36 10 -36 6 0 10 5 10 12 0 9 3 9 12 0 20 -20 26
-14 25 21 -2 27 -6 32 -29 35 -26 3 -28 1 -28 -32z"/>
<path d="M620 135 l0 -34 48 1 c26 0 52 4 59 10 7 6 14 5 18 -2 11 -17 44 -11
55 11 9 15 8 24 -1 35 -13 16 -45 19 -54 4 -4 -6 -13 -5 -24 2 -23 14 -51 4
-58 -22 -7 -28 -23 -25 -23 5 0 14 -4 25 -10 25 -5 0 -10 -16 -10 -35z m90 0
c0 -8 -4 -15 -9 -15 -13 0 -22 16 -14 24 11 11 23 6 23 -9z m75 6 c7 -12 -12
-24 -25 -16 -11 7 -4 25 10 25 5 0 11 -4 15 -9z"/>
</g>
</svg>
